:SAMPLES-PER-SECOND 30
:FULLY-SPECIFIED
:DEGREES
1
root  78.7079 39.4658 0.1555 -140.001 -87.1744 137.306
RightUpLeg  0.0891682 -7.58867 -4.89374
RightLeg  5.8992 8.15606 -0.637013
RightFoot  -3.53599 -0.0887079 0.984295
RightToes  -4.65661e-009 0 -3.6325e-017
Spine  4.89117 0.552562 4.45692
Spine1  -1.68125 1.49212 -4.81667
HEad  -6.91894 -3.75792 -2.48903
LeftShoulder1  -0.344645 4.39029 -32.7065
LeftArm  1.63621 13.4098 -39.1273
LeftForeArm  26.0808 -16.3147 -6.03901
LeftHand  -0.048477 6.69678 -0.906182
RightShoulder  -1.06823 -6.33397 31.3925
RightArm  18.6452 -2.56577 45.182
RightForeArm  15.9841 11.2564 7.46996
RightHand  -0.0126494 3.46303 -0.41326
LeftUpLeg  1.73051 6.18451 1.61577
LeftLeg  3.2254 3.35617 0.323746
LeftFoot  -1.98043 -0.0210308 0.502213
LeftToes  9.86798e-010 -1.28139e-010 1.4132e-011
2
root  78.7081 39.4632 0.16582 -137.644 -87.3227 134.982
RightUpLeg  0.0890593 -7.63902 -4.91718
RightLeg  5.88127 8.01416 -0.614007
RightFoot  -3.5565 -0.0912277 1.0234
RightToes  -4.65661e-009 0 -3.6325e-017
Spine  4.82844 0.455808 4.52278
Spine1  -1.65513 1.40092 -4.85122
HEad  -6.83541 -3.69334 -2.47421
LeftShoulder1  -0.344645 4.39029 -32.7103
LeftArm  1.56908 13.4097 -39.0861
LeftForeArm  25.7493 -16.3244 -6.04049
LeftHand  -0.0651353 7.77152 -1.11117
RightShoulder  -1.07143 -6.32323 31.3933
RightArm  18.4635 -2.48188 45.2445
RightForeArm  16.2439 11.067 7.50047
RightHand  -0.00574619 3.45896 -0.321634
LeftUpLeg  1.61917 6.09836 1.56462
LeftLeg  3.30364 3.27992 0.394067
LeftFoot  -2.01384 -0.0223444 0.522629
LeftToes  9.86798e-010 -1.28139e-010 1.4132e-011
3
root  78.6968 39.4697 0.166922 -139.542 -87.2069 136.943
RightUpLeg  0.0829757 -7.57725 -4.89363
RightLeg  5.72623 8.0794 -0.665659
RightFoot  -3.474 -0.0907215 1.01554
RightToes  -4.65661e-009 0 -3.6325e-017
Spine  4.69048 0.525131 4.60305
Spine1  -1.61066 1.48902 -5.00476
HEad  -6.79109 -3.84994 -2.50861
LeftShoulder1  -0.344645 4.39154 -32.7015
LeftArm  1.2644 13.405 -39.0313
LeftForeArm  25.4163 -16.1709 -6.09205
LeftHand  -0.0807446 9.45636 -0.765957
RightShoulder  -1.08114 -6.34578 31.4858
RightArm  18.6917 -2.43959 45.2071
RightForeArm  16.4447 11.1558 7.51613
RightHand  0.00891906 3.37728 -0.125441
LeftUpLeg  1.6015 6.12485 1.55519
LeftLeg  3.30304 3.40784 0.385627
LeftFoot  -2.00036 -0.0172018 0.442705
LeftToes  9.86798e-010 -1.28139e-010 1.4132e-011
4
root  78.695 39.4662 0.173647 -138.315 -87.2472 135.705
RightUpLeg  0.0582097 -7.62927 -4.93352
RightLeg  5.8429 8.06185 -0.642269
RightFoot  -3.50035 -0.0846615 0.921501
RightToes  -4.65661e-009 0 -3.6325e-017
Spine  4.73928 0.498192 4.60955
Spine1  -1.6746 1.46161 -4.97721
HEad  -6.78847 -3.94597 -2.52909
LeftShoulder1  -0.342102 4.3885 -32.6075
LeftArm  1.00565 13.3953 -39.1177
LeftForeArm  25.2939 -16.0552 -6.12014
LeftHand  -0.0757156 9.41059 -0.670225
RightShoulder  -1.0819 -6.34965 31.4612
RightArm  18.6775 -2.47554 45.2322
RightForeArm  16.4076 11.1872 7.50394
RightHand  0.00155892 3.48928 -0.228374
LeftUpLeg  1.67352 6.11713 1.54243
LeftLeg  3.16915 3.34776 0.345286
LeftFoot  -2.00485 -0.0165901 0.4332
LeftToes  9.86798e-010 -1.28139e-010 1.4132e-011
5
root  78.686 39.4661 0.175212 -139.045 -87.1603 136.473
RightUpLeg  0.0513083 -7.6189 -4.96219
RightLeg  5.75911 8.16669 -0.65307
RightFoot  -3.50721 -0.0922374 1.03907
RightToes  -4.65661e-009 0 -3.6325e-017
Spine  4.62134 0.560161 4.62957
Spine1  -1.57281 1.53247 -5.04193
HEad  -6.89512 -3.88087 -2.3398
LeftShoulder1  -0.335088 4.36969 -32.5648
LeftArm  0.991983 13.3957 -39.1738
LeftForeArm  25.6416 -16.0545 -6.11072
LeftHand  -0.0698134 8.85427 -0.675341
RightShoulder  -1.07616 -6.34024 31.3847
RightArm  18.3698 -2.42685 45.3305
RightForeArm  16.4912 10.9452 7.53018
RightHand  -0.00466823 3.40759 -0.306343
LeftUpLeg  1.67201 6.14311 1.53206
LeftLeg  3.14297 3.37127 0.312017
LeftFoot  -1.94621 -0.0145583 0.401623
LeftToes  9.86798e-010 -1.28139e-010 1.4132e-011
6
root  78.6886 39.4669 0.188025 -134.798 -87.3154 132.146
RightUpLeg  0.101831 -7.75148 -5.08979
RightLeg  5.92963 8.0699 -0.591964
RightFoot  -3.56032 -0.0881554 0.975721
RightToes  -4.65661e-009 0 -3.6325e-017
Spine  4.73362 0.44055 4.58983
Spine1  -1.54492 1.41107 -4.96062
HEad  -6.90389 -4.10274 -2.42952
LeftShoulder1  -0.341017 4.3848 -32.5737
LeftArm  0.981557 13.2709 -39.2527
LeftForeArm  25.9001 -16.0132 -6.12905
LeftHand  -0.0572779 8.53045 -0.375264
RightShoulder  -1.05772 -6.29698 31.3086
RightArm  18.26 -2.30812 45.4155
RightForeArm  16.5106 10.7454 7.58489
RightHand  -0.00506957 3.59459 -0.318404
LeftUpLeg  1.71346 6.03744 1.43503
LeftLeg  3.14181 3.21563 0.348758
LeftFoot  -1.93126 -0.0163107 0.428857
LeftToes  9.86798e-010 -1.28139e-010 1.4132e-011
7
root  78.6875 39.4678 0.197178 -134.75 -87.3236 132.189
RightUpLeg  0.0127429 -7.75533 -5.09018
RightLeg  5.91145 8.03355 -0.580946
RightFoot  -3.55414 -0.0856617 0.937022
RightToes  -4.65661e-009 0 -3.6325e-017
Spine  4.58796 0.426371 4.69631
Spine1  -1.43975 1.41219 -5.05706
HEad  -6.84098 -4.09801 -2.56341
LeftShoulder1  -0.346944 4.40074 -32.5453
LeftArm  0.707048 13.1625 -39.3114
LeftForeArm  26.2271 -15.8961 -6.1391
LeftHand  -0.0475681 7.66109 -0.277092
RightShoulder  -1.04824 -6.27554 31.2574
RightArm  18.2153 -2.27588 45.4983
RightForeArm  16.5947 10.7468 7.57772
RightHand  -0.00696887 3.54775 -0.339498
LeftUpLeg  1.55057 6.00556 1.40381
LeftLeg  3.25868 3.19689 0.36178
LeftFoot  -1.9414 -0.0208486 0.499382
LeftToes  9.86798e-010 -1.28139e-010 1.4132e-011
8
root  78.6903 39.4652 0.210367 -129.714 -87.5011 127.142
RightUpLeg  0.0968082 -7.85609 -5.15339
RightLeg  5.85605 7.87271 -0.520161
RightFoot  -3.56051 -0.0855985 0.936042
RightToes  -4.65661e-009 0 -3.6325e-017
Spine  4.66034 0.294548 4.75515
Spine1  -1.54782 1.28123 -5.08752
HEad  -6.55914 -3.9418 -2.68263
LeftShoulder1  -0.331952 4.36399 -32.4578
LeftArm  -0.0184161 13.0491 -39.4824
LeftForeArm  27.0434 -15.5158 -6.2125
LeftHand  -0.0393009 6.87341 -0.116524
RightShoulder  -1.05215 -6.28463 31.275
RightArm  18.1171 -2.32243 45.4591
RightForeArm  16.2937 10.7625 7.55762
RightHand  -0.0311961 3.88212 -0.655384
LeftUpLeg  1.46868 5.94735 1.36233
LeftLeg  3.35032 3.06431 0.405345
LeftFoot  -1.96605 -0.0243779 0.554232
LeftToes  9.86798e-010 -1.28139e-010 1.4132e-011
9
root  78.7059 39.4559 0.226947 -115.98 -87.8341 113.37
RightUpLeg  0.156701 -8.095 -5.3343
RightLeg  6.01807 7.45434 -0.395592
RightFoot  -3.64495 -0.0817431 0.87621
RightToes  -4.65661e-009 0 -3.6325e-017
Spine  4.89387 -0.0268854 4.57916
Spine1  -1.78446 0.915729 -4.82153
HEad  -6.65149 -3.83852 -2.57759
LeftShoulder1  -0.341276 4.38824 -32.4525
LeftArm  0.414908 13.1008 -39.4947
LeftForeArm  26.7655 -15.7093 -6.18991
LeftHand  -0.0357655 7.27895 0.187501
RightShoulder  -1.07425 -6.33756 31.3535
RightArm  18.1244 -2.24466 45.4133
RightForeArm  16.4799 10.7706 7.55211
RightHand  -0.0350555 3.90186 -0.704945
LeftUpLeg  1.34648 5.81039 1.25119
LeftLeg  3.43534 2.59243 0.418598
LeftFoot  -1.99273 -0.0283544 0.616035
LeftToes  9.86798e-010 -1.28139e-010 1.4132e-011
10
root  78.6987 39.4612 0.215411 -117.421 -87.8562 114.883
RightUpLeg  0.143233 -7.99952 -5.22927
RightLeg  5.89104 7.43628 -0.439081
RightFoot  -3.63594 -0.0927279 1.04668
RightToes  -4.65661e-009 0 -3.6325e-017
Spine  4.72035 0.0226069 4.50492
Spine1  -1.63974 0.935107 -4.66636
HEad  -6.9813 -3.81023 -2.42003
LeftShoulder1  -0.336952 4.37726 -32.4423
LeftArm  0.451686 12.9589 -39.6394
LeftForeArm  26.8367 -15.6166 -6.25644
LeftHand  -0.0314242 8.41202 0.533217
RightShoulder  -1.07428 -6.32775 31.4838
RightArm  18.364 -2.20057 45.2477
RightForeArm  16.4145 10.9462 7.53343
RightHand  -0.0338364 3.75181 -0.693592
LeftUpLeg  1.26071 6.0706 1.48924
LeftLeg  3.53261 2.24944 0.1694
LeftFoot  -2.028 -0.0318521 0.670395
LeftToes  9.86798e-010 -1.28139e-010 1.4132e-011
11
root  78.6828 39.4615 0.200892 -124.074 -87.8468 121.552
RightUpLeg  0.161778 -7.87957 -5.0497
RightLeg  5.80494 7.52554 -0.468776
RightFoot  -3.58478 -0.0911783 1.02263
RightToes  -4.65661e-009 0 -3.6325e-017
Spine  4.63672 0.15047 4.52597
Spine1  -1.5435 1.03942 -4.51874
HEad  -6.95367 -3.73094 -2.50135
LeftShoulder1  -0.324681 4.34552 -32.4471
LeftArm  0.431863 12.8898 -39.6797
LeftForeArm  26.7048 -15.522 -6.31044
LeftHand  -0.028478 8.7205 0.627606
RightShoulder  -1.05928 -6.2883 31.4788
RightArm  18.2476 -2.25572 45.2253
RightForeArm  16.3431 10.9108 7.51797
RightHand  -0.0338 3.79148 -0.687494
LeftUpLeg  1.33126 6.30186 1.74756
LeftLeg  3.51166 2.16127 0.0225507
LeftFoot  -2.08894 -0.0305987 0.650914
LeftToes  9.86798e-010 -1.28139e-010 1.4132e-011
